<svg xmlns="http://www.w3.org/2000/svg" xmlns:xlink="http://www.w3.org/1999/xlink" width="142" zoomAndPan="magnify" viewBox="0 0 106.5 122.249994" height="163" preserveAspectRatio="xMidYMid meet" version="1.2"><defs><clipPath id="cff7bcaefe"><path d="M 15.074219 4.136719 L 90.359375 4.136719 L 90.359375 117.441406 L 15.074219 117.441406 Z M 15.074219 4.136719 "/></clipPath></defs><g id="10f1be77a6"><g clip-rule="nonzero" clip-path="url(#cff7bcaefe)"><path style=" stroke:none;fill-rule:nonzero;fill:#000000;fill-opacity:1;" d="M 37.175781 70.125 L 37.175781 69.667969 C 37.175781 61.382812 41.644531 55.832031 49.894531 51.113281 C 60.191406 45.03125 62.839844 41.761719 62.839844 35.222656 C 62.839844 29.0625 57.917969 24.726562 51.109375 24.726562 C 45.050781 24.726562 40.960938 27.539062 38.617188 33.09375 C 36.421875 38.035156 32.105469 40.546875 26.804688 40.546875 C 19.6875 40.546875 15.148438 36.136719 15.222656 29.289062 C 15.222656 26.019531 15.980469 23.050781 17.570312 20.164062 C 22.640625 10.582031 35.285156 4.039062 52.46875 4.039062 C 75.40625 4.039062 90.46875 16.058594 90.46875 34.535156 C 90.46875 45.714844 85.25 53.472656 74.121094 59.933594 C 64.253906 65.652344 61.992188 68.40625 60.492188 73.375 C 60.414062 73.628906 60.339844 73.886719 60.269531 74.152344 C 58.527344 79.476562 54.96875 82.289062 49.144531 82.289062 C 41.867188 82.296875 37.175781 77.351562 37.175781 70.125 Z M 35.210938 103.589844 C 35.210938 95.984375 41.570312 89.976562 49.515625 89.976562 C 57.386719 89.976562 63.820312 95.984375 63.820312 103.589844 C 63.820312 111.269531 57.386719 117.277344 49.515625 117.277344 C 41.570312 117.277344 35.210938 111.269531 35.210938 103.589844 Z M 35.210938 103.589844 "/></g></g></svg>