<svg xmlns="http://www.w3.org/2000/svg" xmlns:xlink="http://www.w3.org/1999/xlink" width="142" zoomAndPan="magnify" viewBox="0 0 106.5 122.249994" height="163" preserveAspectRatio="xMidYMid meet" version="1.0"><defs><clipPath id="3028e2322b"><path d="M 0.078125 0 L 105.925781 0 L 105.925781 121.503906 L 0.078125 121.503906 Z M 0.078125 0 " clip-rule="nonzero"/></clipPath></defs><path fill="#d45500" d="M 3.503906 3.453125 L 102.527344 3.453125 L 102.527344 82.671875 L 53.015625 117.214844 L 3.503906 82.671875 Z M 3.503906 3.453125 " fill-opacity="1" fill-rule="nonzero"/><path fill="#ffb380" d="M 16.570312 3.453125 L 16.570312 91.789062 L 27.542969 99.441406 L 27.542969 3.453125 Z M 37.207031 3.453125 L 37.207031 106.1875 L 48.179688 113.84375 L 48.179688 3.453125 Z M 57.847656 3.453125 L 57.847656 113.84375 L 68.820312 106.1875 L 68.820312 3.453125 Z M 78.488281 3.453125 L 78.488281 99.441406 L 89.460938 91.789062 L 89.460938 3.453125 Z M 78.488281 3.453125 " fill-opacity="1" fill-rule="nonzero"/><g clip-path="url(#3028e2322b)"><path fill="#000000" d="M 0.0742188 0.0351562 L 0.0742188 84.453125 L 53.015625 121.386719 L 105.953125 84.453125 L 105.953125 0.0351562 Z M 6.929688 6.871094 L 99.101562 6.871094 L 99.101562 80.890625 L 53.015625 113.042969 L 6.929688 80.890625 Z M 6.929688 6.871094 " fill-opacity="1" fill-rule="nonzero"/></g></svg>