<svg xmlns="http://www.w3.org/2000/svg" xmlns:xlink="http://www.w3.org/1999/xlink" width="153" zoomAndPan="magnify" viewBox="0 0 114.75 122.249994" height="163" preserveAspectRatio="xMidYMid meet" version="1.0"><defs><clipPath id="25a4feb010"><path d="M 14.109375 0 L 99.835938 0 L 99.835938 121.503906 L 14.109375 121.503906 Z M 14.109375 0 " clip-rule="nonzero"/></clipPath></defs><path fill="#ffffff" d="M 97.210938 60.765625 C 97.210938 62.671875 97.148438 64.570312 97.019531 66.46875 C 96.890625 68.363281 96.695312 70.246094 96.441406 72.117188 C 96.183594 73.984375 95.863281 75.832031 95.480469 77.65625 C 95.097656 79.480469 94.65625 81.269531 94.152344 83.03125 C 93.648438 84.792969 93.085938 86.511719 92.464844 88.191406 C 91.84375 89.875 91.167969 91.507812 90.4375 93.089844 C 89.703125 94.675781 88.921875 96.203125 88.085938 97.675781 C 87.25 99.148438 86.367188 100.558594 85.433594 101.90625 C 84.503906 103.253906 83.527344 104.535156 82.511719 105.742188 C 81.492188 106.953125 80.4375 108.085938 79.339844 109.144531 C 78.246094 110.203125 77.117188 111.179688 75.957031 112.078125 C 74.792969 112.976562 73.605469 113.792969 72.390625 114.519531 C 71.171875 115.25 69.933594 115.890625 68.671875 116.445312 C 67.414062 116.996094 66.136719 117.460938 64.84375 117.832031 C 63.554688 118.203125 62.253906 118.484375 60.941406 118.667969 C 59.632812 118.855469 58.316406 118.949219 57 118.949219 C 55.683594 118.949219 54.371094 118.855469 53.058594 118.667969 C 51.75 118.484375 50.445312 118.203125 49.15625 117.832031 C 47.863281 117.460938 46.589844 116.996094 45.328125 116.445312 C 44.066406 115.890625 42.828125 115.25 41.613281 114.519531 C 40.394531 113.792969 39.207031 112.976562 38.042969 112.078125 C 36.882812 111.179688 35.753906 110.203125 34.660156 109.144531 C 33.566406 108.085938 32.507812 106.953125 31.488281 105.742188 C 30.472656 104.535156 29.496094 103.253906 28.566406 101.90625 C 27.632812 100.558594 26.75 99.148438 25.914062 97.675781 C 25.082031 96.203125 24.296875 94.675781 23.566406 93.089844 C 22.832031 91.507812 22.15625 89.875 21.535156 88.191406 C 20.914062 86.511719 20.351562 84.792969 19.847656 83.03125 C 19.34375 81.269531 18.902344 79.480469 18.519531 77.65625 C 18.136719 75.832031 17.816406 73.984375 17.5625 72.117188 C 17.304688 70.246094 17.109375 68.363281 16.980469 66.46875 C 16.851562 64.570312 16.789062 62.671875 16.789062 60.765625 C 16.789062 58.859375 16.851562 56.957031 16.980469 55.0625 C 17.109375 53.164062 17.304688 51.28125 17.5625 49.414062 C 17.816406 47.546875 18.136719 45.699219 18.519531 43.875 C 18.902344 42.050781 19.34375 40.257812 19.847656 38.5 C 20.351562 36.738281 20.914062 35.019531 21.535156 33.335938 C 22.15625 31.65625 22.832031 30.023438 23.566406 28.441406 C 24.296875 26.855469 25.082031 25.328125 25.914062 23.855469 C 26.75 22.378906 27.632812 20.96875 28.566406 19.621094 C 29.496094 18.273438 30.472656 16.996094 31.488281 15.789062 C 32.507812 14.578125 33.566406 13.445312 34.660156 12.386719 C 35.753906 11.328125 36.882812 10.351562 38.042969 9.453125 C 39.207031 8.554688 40.394531 7.738281 41.613281 7.011719 C 42.828125 6.28125 44.066406 5.640625 45.328125 5.085938 C 46.589844 4.535156 47.863281 4.070312 49.15625 3.699219 C 50.445312 3.328125 51.75 3.046875 53.058594 2.859375 C 54.371094 2.675781 55.683594 2.582031 57 2.582031 C 58.316406 2.582031 59.632812 2.675781 60.941406 2.859375 C 62.253906 3.046875 63.554688 3.328125 64.84375 3.699219 C 66.136719 4.070312 67.414062 4.535156 68.671875 5.085938 C 69.933594 5.640625 71.171875 6.28125 72.390625 7.011719 C 73.605469 7.738281 74.792969 8.554688 75.957031 9.453125 C 77.117188 10.351562 78.246094 11.328125 79.339844 12.386719 C 80.4375 13.445312 81.492188 14.578125 82.511719 15.789062 C 83.527344 16.996094 84.503906 18.273438 85.433594 19.621094 C 86.367188 20.96875 87.25 22.378906 88.085938 23.855469 C 88.921875 25.328125 89.703125 26.855469 90.4375 28.441406 C 91.167969 30.023438 91.84375 31.65625 92.464844 33.335938 C 93.085938 35.019531 93.648438 36.738281 94.152344 38.5 C 94.65625 40.257812 95.097656 42.050781 95.480469 43.875 C 95.863281 45.699219 96.183594 47.546875 96.441406 49.414062 C 96.695312 51.28125 96.890625 53.164062 97.019531 55.0625 C 97.148438 56.957031 97.210938 58.859375 97.210938 60.765625 Z M 97.210938 60.765625 " fill-opacity="1" fill-rule="nonzero"/><path fill="#2a7fff" d="M 57 2.582031 C 54.980469 2.585938 52.976562 2.808594 50.980469 3.25 L 50.980469 118.28125 C 52.976562 118.722656 54.980469 118.945312 57 118.949219 C 59.019531 118.945312 61.027344 118.722656 63.023438 118.28125 L 63.023438 3.242188 C 61.027344 2.800781 59.019531 2.582031 57 2.582031 Z M 73.636719 7.796875 L 73.636719 113.730469 C 78.175781 110.742188 82.1875 106.675781 85.679688 101.527344 L 85.679688 19.988281 C 82.1875 14.84375 78.171875 10.78125 73.636719 7.796875 Z M 40.363281 7.796875 C 35.828125 10.785156 31.8125 14.855469 28.320312 20.003906 L 28.320312 101.527344 C 31.8125 106.675781 35.828125 110.742188 40.363281 113.730469 Z M 40.363281 7.796875 " fill-opacity="1" fill-rule="nonzero"/><g clip-path="url(#25a4feb010)"><path fill="#000000" d="M 57 0 C 44.890625 0 34.078125 7.121094 26.449219 18.152344 C 18.824219 29.1875 14.214844 44.214844 14.214844 60.765625 C 14.214844 77.316406 18.824219 92.34375 26.449219 103.378906 C 34.078125 114.414062 44.890625 121.53125 57 121.53125 C 69.109375 121.53125 79.921875 114.414062 87.550781 103.378906 C 95.175781 92.34375 99.785156 77.316406 99.785156 60.765625 C 99.785156 44.214844 95.175781 29.1875 87.550781 18.152344 C 79.921875 7.121094 69.109375 0 57 0 Z M 57 5.164062 C 67.101562 5.164062 76.390625 11.070312 83.316406 21.09375 C 90.246094 31.117188 94.636719 45.183594 94.636719 60.765625 C 94.636719 76.351562 90.246094 90.414062 83.316406 100.4375 C 76.390625 110.460938 67.101562 116.367188 57 116.367188 C 46.898438 116.367188 37.609375 110.460938 30.683594 100.4375 C 23.753906 90.414062 19.363281 76.351562 19.363281 60.765625 C 19.363281 45.183594 23.753906 31.117188 30.683594 21.09375 C 37.609375 11.070312 46.898438 5.164062 57 5.164062 Z M 57 5.164062 " fill-opacity="1" fill-rule="nonzero"/></g></svg>